{
    "asset" : {
        "generator" : "Khronos glTF Blender I/O v1.2.75",
        "version" : "2.0"
    },
    "scene" : 0,
    "scenes" : [
        {
            "name" : "Scene",
            "nodes" : [
                0,
                1,
                2,
                3,
                4,
                5,
                6,
                7,
                8,
                9
            ]
        }
    ],
    "nodes" : [
        {
            "mesh" : 0,
            "name" : "glassBlue"
        },
        {
            "mesh" : 1,
            "name" : "glassGreen"
        },
        {
            "mesh" : 2,
            "name" : "water"
        },
        {
            "mesh" : 3,
            "name" : "yellow"
        },
        {
            "mesh" : 4,
            "name" : "blue"
        },
        {
            "mesh" : 5,
            "name" : "glassBlueDark"
        },
        {
            "mesh" : 6,
            "name" : "glassWhite"
        },
        {
            "mesh" : 7,
            "name" : "green"
        },
        {
            "mesh" : 8,
            "name" : "white"
        },
        {
            "mesh" : 9,
            "name" : "glassBlueLight"
        }
    ],
    "meshes" : [
        {
            "name" : "Cube.004",
            "primitives" : [
                {
                    "attributes" : {
                        "POSITION" : 0,
                        "NORMAL" : 1
                    },
                    "indices" : 2
                }
            ]
        },
        {
            "name" : "Cube.001",
            "primitives" : [
                {
                    "attributes" : {
                        "POSITION" : 3,
                        "NORMAL" : 4
                    },
                    "indices" : 5
                }
            ]
        },
        {
            "name" : "Cube.002",
            "primitives" : [
                {
                    "attributes" : {
                        "POSITION" : 6,
                        "NORMAL" : 7
                    },
                    "indices" : 8
                }
            ]
        },
        {
            "name" : "Cube.006",
            "primitives" : [
                {
                    "attributes" : {
                        "POSITION" : 9,
                        "NORMAL" : 10
                    },
                    "indices" : 11
                }
            ]
        },
        {
            "name" : "Cube.008",
            "primitives" : [
                {
                    "attributes" : {
                        "POSITION" : 12,
                        "NORMAL" : 13
                    },
                    "indices" : 14
                }
            ]
        },
        {
            "name" : "Cube.009",
            "primitives" : [
                {
                    "attributes" : {
                        "POSITION" : 15,
                        "NORMAL" : 16
                    },
                    "indices" : 14
                }
            ]
        },
        {
            "name" : "Cube.010",
            "primitives" : [
                {
                    "attributes" : {
                        "POSITION" : 17,
                        "NORMAL" : 18
                    },
                    "indices" : 19
                }
            ]
        },
        {
            "name" : "Cube.011",
            "primitives" : [
                {
                    "attributes" : {
                        "POSITION" : 20,
                        "NORMAL" : 21
                    },
                    "indices" : 22
                }
            ]
        },
        {
            "name" : "Cube.012",
            "primitives" : [
                {
                    "attributes" : {
                        "POSITION" : 23,
                        "NORMAL" : 24
                    },
                    "indices" : 25
                }
            ]
        },
        {
            "name" : "Cube.014",
            "primitives" : [
                {
                    "attributes" : {
                        "POSITION" : 26,
                        "NORMAL" : 27
                    },
                    "indices" : 28
                }
            ]
        }
    ],
    "accessors" : [
        {
            "bufferView" : 0,
            "componentType" : 5126,
            "count" : 1108,
            "max" : [
                0.8659681081771851,
                1.0581002235412598,
                0.9165694117546082
            ],
            "min" : [
                -1.0316025018692017,
                -0.8464229702949524,
                -1.0108771324157715
            ],
            "type" : "VEC3"
        },
        {
            "bufferView" : 1,
            "componentType" : 5126,
            "count" : 1108,
            "type" : "VEC3"
        },
        {
            "bufferView" : 2,
            "componentType" : 5123,
            "count" : 1140,
            "type" : "SCALAR"
        },
        {
            "bufferView" : 3,
            "componentType" : 5126,
            "count" : 300,
            "max" : [
                1.0067559480667114,
                -0.10113158822059631,
                0.9226656556129456
            ],
            "min" : [
                -1.0256682634353638,
                -0.3478715121746063,
                -1.0466077327728271
            ],
            "type" : "VEC3"
        },
        {
            "bufferView" : 4,
            "componentType" : 5126,
            "count" : 300,
            "type" : "VEC3"
        },
        {
            "bufferView" : 5,
            "componentType" : 5123,
            "count" : 300,
            "type" : "SCALAR"
        },
        {
            "bufferView" : 6,
            "componentType" : 5126,
            "count" : 102,
            "max" : [
                0.6187419891357422,
                0.08860015869140625,
                1.000000238418579
            ],
            "min" : [
                -0.3553887605667114,
                -0.7237879633903503,
                -0.9753492474555969
            ],
            "type" : "VEC3"
        },
        {
            "bufferView" : 7,
            "componentType" : 5126,
            "count" : 102,
            "type" : "VEC3"
        },
        {
            "bufferView" : 8,
            "componentType" : 5123,
            "count" : 150,
            "type" : "SCALAR"
        },
        {
            "bufferView" : 9,
            "componentType" : 5126,
            "count" : 3829,
            "max" : [
                0.9945414662361145,
                1.0694117546081543,
                1.0725743770599365
            ],
            "min" : [
                -1.028923511505127,
                -1.0230743885040283,
                -0.9334575533866882
            ],
            "type" : "VEC3"
        },
        {
            "bufferView" : 10,
            "componentType" : 5126,
            "count" : 3829,
            "type" : "VEC3"
        },
        {
            "bufferView" : 11,
            "componentType" : 5123,
            "count" : 5463,
            "type" : "SCALAR"
        },
        {
            "bufferView" : 12,
            "componentType" : 5126,
            "count" : 420,
            "max" : [
                0.9471052289009094,
                0.8537485003471375,
                0.9916914105415344
            ],
            "min" : [
                -1.0316177606582642,
                -1.0256223678588867,
                -0.5214061141014099
            ],
            "type" : "VEC3"
        },
        {
            "bufferView" : 13,
            "componentType" : 5126,
            "count" : 420,
            "type" : "VEC3"
        },
        {
            "bufferView" : 14,
            "componentType" : 5123,
            "count" : 420,
            "type" : "SCALAR"
        },
        {
            "bufferView" : 15,
            "componentType" : 5126,
            "count" : 420,
            "max" : [
                0.7181718349456787,
                0.9291555285453796,
                1.0009310245513916
            ],
            "min" : [
                -0.6093621253967285,
                -0.6262434720993042,
                -0.7916702628135681
            ],
            "type" : "VEC3"
        },
        {
            "bufferView" : 16,
            "componentType" : 5126,
            "count" : 420,
            "type" : "VEC3"
        },
        {
            "bufferView" : 17,
            "componentType" : 5126,
            "count" : 1080,
            "max" : [
                1.035528540611267,
                0.8205496072769165,
                0.9980987906455994
            ],
            "min" : [
                -1.0455299615859985,
                -0.9557839035987854,
                -0.9531237483024597
            ],
            "type" : "VEC3"
        },
        {
            "bufferView" : 18,
            "componentType" : 5126,
            "count" : 1080,
            "type" : "VEC3"
        },
        {
            "bufferView" : 19,
            "componentType" : 5123,
            "count" : 1080,
            "type" : "SCALAR"
        },
        {
            "bufferView" : 20,
            "componentType" : 5126,
            "count" : 4307,
            "max" : [
                1.0293521881103516,
                0.9956881403923035,
                0.9976874589920044
            ],
            "min" : [
                -0.9946994781494141,
                -1.0368108749389648,
                -1.0293521881103516
            ],
            "type" : "VEC3"
        },
        {
            "bufferView" : 21,
            "componentType" : 5126,
            "count" : 4307,
            "type" : "VEC3"
        },
        {
            "bufferView" : 22,
            "componentType" : 5123,
            "count" : 6120,
            "type" : "SCALAR"
        },
        {
            "bufferView" : 23,
            "componentType" : 5126,
            "count" : 1740,
            "max" : [
                0.9940906167030334,
                1.9087653160095215,
                0.9823779463768005
            ],
            "min" : [
                -0.9882075190544128,
                -1.0022268295288086,
                -0.9940904974937439
            ],
            "type" : "VEC3"
        },
        {
            "bufferView" : 24,
            "componentType" : 5126,
            "count" : 1740,
            "type" : "VEC3"
        },
        {
            "bufferView" : 25,
            "componentType" : 5123,
            "count" : 2556,
            "type" : "SCALAR"
        },
        {
            "bufferView" : 26,
            "componentType" : 5126,
            "count" : 1716,
            "max" : [
                1.2452079057693481,
                1.6649487018585205,
                1.003481149673462
            ],
            "min" : [
                -1.024096965789795,
                -0.9327217936515808,
                -1.2283499240875244
            ],
            "type" : "VEC3"
        },
        {
            "bufferView" : 27,
            "componentType" : 5126,
            "count" : 1716,
            "type" : "VEC3"
        },
        {
            "bufferView" : 28,
            "componentType" : 5123,
            "count" : 2334,
            "type" : "SCALAR"
        }
    ],
    "bufferViews" : [
        {
            "buffer" : 0,
            "byteLength" : 13296,
            "byteOffset" : 0
        },
        {
            "buffer" : 0,
            "byteLength" : 13296,
            "byteOffset" : 13296
        },
        {
            "buffer" : 0,
            "byteLength" : 2280,
            "byteOffset" : 26592
        },
        {
            "buffer" : 0,
            "byteLength" : 3600,
            "byteOffset" : 28872
        },
        {
            "buffer" : 0,
            "byteLength" : 3600,
            "byteOffset" : 32472
        },
        {
            "buffer" : 0,
            "byteLength" : 600,
            "byteOffset" : 36072
        },
        {
            "buffer" : 0,
            "byteLength" : 1224,
            "byteOffset" : 36672
        },
        {
            "buffer" : 0,
            "byteLength" : 1224,
            "byteOffset" : 37896
        },
        {
            "buffer" : 0,
            "byteLength" : 300,
            "byteOffset" : 39120
        },
        {
            "buffer" : 0,
            "byteLength" : 45948,
            "byteOffset" : 39420
        },
        {
            "buffer" : 0,
            "byteLength" : 45948,
            "byteOffset" : 85368
        },
        {
            "buffer" : 0,
            "byteLength" : 10926,
            "byteOffset" : 131316
        },
        {
            "buffer" : 0,
            "byteLength" : 5040,
            "byteOffset" : 142244
        },
        {
            "buffer" : 0,
            "byteLength" : 5040,
            "byteOffset" : 147284
        },
        {
            "buffer" : 0,
            "byteLength" : 840,
            "byteOffset" : 152324
        },
        {
            "buffer" : 0,
            "byteLength" : 5040,
            "byteOffset" : 153164
        },
        {
            "buffer" : 0,
            "byteLength" : 5040,
            "byteOffset" : 158204
        },
        {
            "buffer" : 0,
            "byteLength" : 12960,
            "byteOffset" : 163244
        },
        {
            "buffer" : 0,
            "byteLength" : 12960,
            "byteOffset" : 176204
        },
        {
            "buffer" : 0,
            "byteLength" : 2160,
            "byteOffset" : 189164
        },
        {
            "buffer" : 0,
            "byteLength" : 51684,
            "byteOffset" : 191324
        },
        {
            "buffer" : 0,
            "byteLength" : 51684,
            "byteOffset" : 243008
        },
        {
            "buffer" : 0,
            "byteLength" : 12240,
            "byteOffset" : 294692
        },
        {
            "buffer" : 0,
            "byteLength" : 20880,
            "byteOffset" : 306932
        },
        {
            "buffer" : 0,
            "byteLength" : 20880,
            "byteOffset" : 327812
        },
        {
            "buffer" : 0,
            "byteLength" : 5112,
            "byteOffset" : 348692
        },
        {
            "buffer" : 0,
            "byteLength" : 20592,
            "byteOffset" : 353804
        },
        {
            "buffer" : 0,
            "byteLength" : 20592,
            "byteOffset" : 374396
        },
        {
            "buffer" : 0,
            "byteLength" : 4668,
            "byteOffset" : 394988
        }
    ],
    "buffers" : [
        {
            "byteLength" : 399656,
            "uri" : "data:application/octet-stream;base64,"
        }
    ]
}
