{
    "asset" : {
        "generator" : "Khronos glTF Blender I/O v1.2.75",
        "version" : "2.0"
    },
    "scene" : 0,
    "scenes" : [
        {
            "name" : "Scene",
            "nodes" : [
                0,
                1,
                2
            ]
        }
    ],
    "nodes" : [
        {
            "mesh" : 0,
            "name" : "Cube.034"
        },
        {
            "mesh" : 1,
            "name" : "Cube.004"
        },
        {
            "mesh" : 2,
            "name" : "Cube.005"
        }
    ],
    "meshes" : [
        {
            "name" : "Cube.079",
            "primitives" : [
                {
                    "attributes" : {
                        "POSITION" : 0,
                        "NORMAL" : 1
                    },
                    "indices" : 2
                }
            ]
        },
        {
            "name" : "Cube.008",
            "primitives" : [
                {
                    "attributes" : {
                        "POSITION" : 3,
                        "NORMAL" : 4
                    },
                    "indices" : 5
                }
            ]
        },
        {
            "name" : "Cube.009",
            "primitives" : [
                {
                    "attributes" : {
                        "POSITION" : 6,
                        "NORMAL" : 7
                    },
                    "indices" : 8
                }
            ]
        }
    ],
    "accessors" : [
        {
            "bufferView" : 0,
            "componentType" : 5126,
            "count" : 124,
            "max" : [
                0.28985366225242615,
                0.32534509897232056,
                0.27169954776763916
            ],
            "min" : [
                -0.3137357234954834,
                -0.19216157495975494,
                -0.31105488538742065
            ],
            "type" : "VEC3"
        },
        {
            "bufferView" : 1,
            "componentType" : 5126,
            "count" : 124,
            "type" : "VEC3"
        },
        {
            "bufferView" : 2,
            "componentType" : 5123,
            "count" : 168,
            "type" : "SCALAR"
        },
        {
            "bufferView" : 3,
            "componentType" : 5126,
            "count" : 276,
            "max" : [
                0.34365546703338623,
                0.5681230425834656,
                0.3407122790813446
            ],
            "min" : [
                -0.3174965977668762,
                -0.3264221251010895,
                -0.2976178228855133
            ],
            "type" : "VEC3"
        },
        {
            "bufferView" : 4,
            "componentType" : 5126,
            "count" : 276,
            "type" : "VEC3"
        },
        {
            "bufferView" : 5,
            "componentType" : 5123,
            "count" : 378,
            "type" : "SCALAR"
        },
        {
            "bufferView" : 6,
            "componentType" : 5126,
            "count" : 244,
            "max" : [
                0.14901839196681976,
                0.5111527442932129,
                0.014498578384518623
            ],
            "min" : [
                -0.1490187793970108,
                0.2696698307991028,
                -0.014505138620734215
            ],
            "type" : "VEC3"
        },
        {
            "bufferView" : 7,
            "componentType" : 5126,
            "count" : 244,
            "type" : "VEC3"
        },
        {
            "bufferView" : 8,
            "componentType" : 5123,
            "count" : 390,
            "type" : "SCALAR"
        }
    ],
    "bufferViews" : [
        {
            "buffer" : 0,
            "byteLength" : 1488,
            "byteOffset" : 0
        },
        {
            "buffer" : 0,
            "byteLength" : 1488,
            "byteOffset" : 1488
        },
        {
            "buffer" : 0,
            "byteLength" : 336,
            "byteOffset" : 2976
        },
        {
            "buffer" : 0,
            "byteLength" : 3312,
            "byteOffset" : 3312
        },
        {
            "buffer" : 0,
            "byteLength" : 3312,
            "byteOffset" : 6624
        },
        {
            "buffer" : 0,
            "byteLength" : 756,
            "byteOffset" : 9936
        },
        {
            "buffer" : 0,
            "byteLength" : 2928,
            "byteOffset" : 10692
        },
        {
            "buffer" : 0,
            "byteLength" : 2928,
            "byteOffset" : 13620
        },
        {
            "buffer" : 0,
            "byteLength" : 780,
            "byteOffset" : 16548
        }
    ],
    "buffers" : [
        {
            "byteLength" : 17328,
            "uri" : "data:application/octet-stream;base64,"
        }
    ]
}
