{
    "asset" : {
        "generator" : "Khronos glTF Blender I/O v1.2.75",
        "version" : "2.0"
    },
    "scene" : 0,
    "scenes" : [
        {
            "name" : "Scene",
            "nodes" : [
                0,
                1,
                2,
                3,
                4,
                5,
                6,
                7,
                8,
                9,
                10
            ]
        }
    ],
    "nodes" : [
        {
            "mesh" : 0,
            "name" : "glassWhite.001"
        },
        {
            "mesh" : 1,
            "name" : "glassGreen"
        },
        {
            "mesh" : 2,
            "name" : "glassWhite"
        },
        {
            "mesh" : 3,
            "name" : "water"
        },
        {
            "mesh" : 4,
            "name" : "grey"
        },
        {
            "mesh" : 5,
            "name" : "glassRed"
        },
        {
            "mesh" : 6,
            "name" : "glassBlue"
        },
        {
            "mesh" : 7,
            "name" : "green"
        },
        {
            "mesh" : 8,
            "name" : "red"
        },
        {
            "mesh" : 9,
            "name" : "glassBlueDark"
        },
        {
            "mesh" : 10,
            "name" : "white"
        }
    ],
    "meshes" : [
        {
            "name" : "Sphere.020",
            "primitives" : [
                {
                    "attributes" : {
                        "POSITION" : 0,
                        "NORMAL" : 1
                    },
                    "indices" : 2
                }
            ]
        },
        {
            "name" : "Sphere.025",
            "primitives" : [
                {
                    "attributes" : {
                        "POSITION" : 3,
                        "NORMAL" : 4
                    },
                    "indices" : 5
                }
            ]
        },
        {
            "name" : "Sphere.027",
            "primitives" : [
                {
                    "attributes" : {
                        "POSITION" : 6,
                        "NORMAL" : 7
                    },
                    "indices" : 8
                }
            ]
        },
        {
            "name" : "Sphere.029",
            "primitives" : [
                {
                    "attributes" : {
                        "POSITION" : 9,
                        "NORMAL" : 10
                    },
                    "indices" : 11
                }
            ]
        },
        {
            "name" : "Sphere.030",
            "primitives" : [
                {
                    "attributes" : {
                        "POSITION" : 12,
                        "NORMAL" : 13
                    },
                    "indices" : 14
                }
            ]
        },
        {
            "name" : "Sphere.031",
            "primitives" : [
                {
                    "attributes" : {
                        "POSITION" : 15,
                        "NORMAL" : 16
                    },
                    "indices" : 2
                }
            ]
        },
        {
            "name" : "Sphere.032",
            "primitives" : [
                {
                    "attributes" : {
                        "POSITION" : 17,
                        "NORMAL" : 18
                    },
                    "indices" : 19
                }
            ]
        },
        {
            "name" : "Sphere.033",
            "primitives" : [
                {
                    "attributes" : {
                        "POSITION" : 20,
                        "NORMAL" : 21
                    },
                    "indices" : 22
                }
            ]
        },
        {
            "name" : "Sphere.035",
            "primitives" : [
                {
                    "attributes" : {
                        "POSITION" : 23,
                        "NORMAL" : 24
                    },
                    "indices" : 25
                }
            ]
        },
        {
            "name" : "Sphere.036",
            "primitives" : [
                {
                    "attributes" : {
                        "POSITION" : 26,
                        "NORMAL" : 27
                    },
                    "indices" : 28
                }
            ]
        },
        {
            "name" : "Sphere.037",
            "primitives" : [
                {
                    "attributes" : {
                        "POSITION" : 29,
                        "NORMAL" : 30
                    },
                    "indices" : 31
                }
            ]
        }
    ],
    "accessors" : [
        {
            "bufferView" : 0,
            "componentType" : 5126,
            "count" : 300,
            "max" : [
                0.20467211306095123,
                0.5347036719322205,
                0.5437959432601929
            ],
            "min" : [
                -0.553214967250824,
                -0.4709690511226654,
                -0.5888251066207886
            ],
            "type" : "VEC3"
        },
        {
            "bufferView" : 1,
            "componentType" : 5126,
            "count" : 300,
            "type" : "VEC3"
        },
        {
            "bufferView" : 2,
            "componentType" : 5123,
            "count" : 300,
            "type" : "SCALAR"
        },
        {
            "bufferView" : 3,
            "componentType" : 5126,
            "count" : 180,
            "max" : [
                0.27798426151275635,
                0.5281887054443359,
                0.41048234701156616
            ],
            "min" : [
                -0.581177830696106,
                -0.2702542245388031,
                -0.09627813845872879
            ],
            "type" : "VEC3"
        },
        {
            "bufferView" : 4,
            "componentType" : 5126,
            "count" : 180,
            "type" : "VEC3"
        },
        {
            "bufferView" : 5,
            "componentType" : 5123,
            "count" : 180,
            "type" : "SCALAR"
        },
        {
            "bufferView" : 6,
            "componentType" : 5126,
            "count" : 60,
            "max" : [
                0.39414212107658386,
                0.3745403289794922,
                0.3493089973926544
            ],
            "min" : [
                0.2904697060585022,
                0.2708354890346527,
                0.25055527687072754
            ],
            "type" : "VEC3"
        },
        {
            "bufferView" : 7,
            "componentType" : 5126,
            "count" : 60,
            "type" : "VEC3"
        },
        {
            "bufferView" : 8,
            "componentType" : 5123,
            "count" : 60,
            "type" : "SCALAR"
        },
        {
            "bufferView" : 9,
            "componentType" : 5126,
            "count" : 128,
            "max" : [
                0.5043923854827881,
                0.09076601266860962,
                0.5042390823364258
            ],
            "min" : [
                -0.5041707158088684,
                -0.11764192581176758,
                -0.5043238997459412
            ],
            "type" : "VEC3"
        },
        {
            "bufferView" : 10,
            "componentType" : 5126,
            "count" : 128,
            "type" : "VEC3"
        },
        {
            "bufferView" : 11,
            "componentType" : 5123,
            "count" : 192,
            "type" : "SCALAR"
        },
        {
            "bufferView" : 12,
            "componentType" : 5126,
            "count" : 550,
            "max" : [
                0.5016309022903442,
                0.614139199256897,
                0.421957403421402
            ],
            "min" : [
                -0.43354055285453796,
                -0.6324117183685303,
                -0.49918749928474426
            ],
            "type" : "VEC3"
        },
        {
            "bufferView" : 13,
            "componentType" : 5126,
            "count" : 550,
            "type" : "VEC3"
        },
        {
            "bufferView" : 14,
            "componentType" : 5123,
            "count" : 750,
            "type" : "SCALAR"
        },
        {
            "bufferView" : 15,
            "componentType" : 5126,
            "count" : 300,
            "max" : [
                0.5697777271270752,
                0.5121065974235535,
                0.15250547230243683
            ],
            "min" : [
                -0.42322757840156555,
                -0.4881839454174042,
                -0.32025039196014404
            ],
            "type" : "VEC3"
        },
        {
            "bufferView" : 16,
            "componentType" : 5126,
            "count" : 300,
            "type" : "VEC3"
        },
        {
            "bufferView" : 17,
            "componentType" : 5126,
            "count" : 240,
            "max" : [
                0.21506138145923615,
                0.5444272756576538,
                0.38628825545310974
            ],
            "min" : [
                -0.1783076375722885,
                -0.4685992896556854,
                -0.545309841632843
            ],
            "type" : "VEC3"
        },
        {
            "bufferView" : 18,
            "componentType" : 5126,
            "count" : 240,
            "type" : "VEC3"
        },
        {
            "bufferView" : 19,
            "componentType" : 5123,
            "count" : 240,
            "type" : "SCALAR"
        },
        {
            "bufferView" : 20,
            "componentType" : 5126,
            "count" : 4093,
            "max" : [
                0.5390949845314026,
                1.073169231414795,
                0.5389416813850403
            ],
            "min" : [
                -0.5388733148574829,
                -0.5538150668144226,
                -0.5390265583992004
            ],
            "type" : "VEC3"
        },
        {
            "bufferView" : 21,
            "componentType" : 5126,
            "count" : 4093,
            "type" : "VEC3"
        },
        {
            "bufferView" : 22,
            "componentType" : 5123,
            "count" : 6222,
            "type" : "SCALAR"
        },
        {
            "bufferView" : 23,
            "componentType" : 5126,
            "count" : 145,
            "max" : [
                0.4821406304836273,
                0.498881459236145,
                0.39654678106307983
            ],
            "min" : [
                -0.408130019903183,
                -0.589364767074585,
                -0.4796973466873169
            ],
            "type" : "VEC3"
        },
        {
            "bufferView" : 24,
            "componentType" : 5126,
            "count" : 145,
            "type" : "VEC3"
        },
        {
            "bufferView" : 25,
            "componentType" : 5123,
            "count" : 219,
            "type" : "SCALAR"
        },
        {
            "bufferView" : 26,
            "componentType" : 5126,
            "count" : 774,
            "max" : [
                0.367431640625,
                1.0549464225769043,
                0.5885204076766968
            ],
            "min" : [
                -0.19570383429527283,
                -0.28542694449424744,
                -0.4378984868526459
            ],
            "type" : "VEC3"
        },
        {
            "bufferView" : 27,
            "componentType" : 5126,
            "count" : 774,
            "type" : "VEC3"
        },
        {
            "bufferView" : 28,
            "componentType" : 5123,
            "count" : 1026,
            "type" : "SCALAR"
        },
        {
            "bufferView" : 29,
            "componentType" : 5126,
            "count" : 784,
            "max" : [
                0.4311705529689789,
                1.0001291036605835,
                0.43101733922958374
            ],
            "min" : [
                -0.43094897270202637,
                -0.495145708322525,
                -0.4311022162437439
            ],
            "type" : "VEC3"
        },
        {
            "bufferView" : 30,
            "componentType" : 5126,
            "count" : 784,
            "type" : "VEC3"
        },
        {
            "bufferView" : 31,
            "componentType" : 5123,
            "count" : 1242,
            "type" : "SCALAR"
        }
    ],
    "bufferViews" : [
        {
            "buffer" : 0,
            "byteLength" : 3600,
            "byteOffset" : 0
        },
        {
            "buffer" : 0,
            "byteLength" : 3600,
            "byteOffset" : 3600
        },
        {
            "buffer" : 0,
            "byteLength" : 600,
            "byteOffset" : 7200
        },
        {
            "buffer" : 0,
            "byteLength" : 2160,
            "byteOffset" : 7800
        },
        {
            "buffer" : 0,
            "byteLength" : 2160,
            "byteOffset" : 9960
        },
        {
            "buffer" : 0,
            "byteLength" : 360,
            "byteOffset" : 12120
        },
        {
            "buffer" : 0,
            "byteLength" : 720,
            "byteOffset" : 12480
        },
        {
            "buffer" : 0,
            "byteLength" : 720,
            "byteOffset" : 13200
        },
        {
            "buffer" : 0,
            "byteLength" : 120,
            "byteOffset" : 13920
        },
        {
            "buffer" : 0,
            "byteLength" : 1536,
            "byteOffset" : 14040
        },
        {
            "buffer" : 0,
            "byteLength" : 1536,
            "byteOffset" : 15576
        },
        {
            "buffer" : 0,
            "byteLength" : 384,
            "byteOffset" : 17112
        },
        {
            "buffer" : 0,
            "byteLength" : 6600,
            "byteOffset" : 17496
        },
        {
            "buffer" : 0,
            "byteLength" : 6600,
            "byteOffset" : 24096
        },
        {
            "buffer" : 0,
            "byteLength" : 1500,
            "byteOffset" : 30696
        },
        {
            "buffer" : 0,
            "byteLength" : 3600,
            "byteOffset" : 32196
        },
        {
            "buffer" : 0,
            "byteLength" : 3600,
            "byteOffset" : 35796
        },
        {
            "buffer" : 0,
            "byteLength" : 2880,
            "byteOffset" : 39396
        },
        {
            "buffer" : 0,
            "byteLength" : 2880,
            "byteOffset" : 42276
        },
        {
            "buffer" : 0,
            "byteLength" : 480,
            "byteOffset" : 45156
        },
        {
            "buffer" : 0,
            "byteLength" : 49116,
            "byteOffset" : 45636
        },
        {
            "buffer" : 0,
            "byteLength" : 49116,
            "byteOffset" : 94752
        },
        {
            "buffer" : 0,
            "byteLength" : 12444,
            "byteOffset" : 143868
        },
        {
            "buffer" : 0,
            "byteLength" : 1740,
            "byteOffset" : 156312
        },
        {
            "buffer" : 0,
            "byteLength" : 1740,
            "byteOffset" : 158052
        },
        {
            "buffer" : 0,
            "byteLength" : 438,
            "byteOffset" : 159792
        },
        {
            "buffer" : 0,
            "byteLength" : 9288,
            "byteOffset" : 160232
        },
        {
            "buffer" : 0,
            "byteLength" : 9288,
            "byteOffset" : 169520
        },
        {
            "buffer" : 0,
            "byteLength" : 2052,
            "byteOffset" : 178808
        },
        {
            "buffer" : 0,
            "byteLength" : 9408,
            "byteOffset" : 180860
        },
        {
            "buffer" : 0,
            "byteLength" : 9408,
            "byteOffset" : 190268
        },
        {
            "buffer" : 0,
            "byteLength" : 2484,
            "byteOffset" : 199676
        }
    ],
    "buffers" : [
        {
            "byteLength" : 202160,
            "uri" : "data:application/octet-stream;base64,"
        }
    ]
}
